<svg width="430" height="499" viewBox="0 0 430 499" fill="none" xmlns="http://www.w3.org/2000/svg">
<g filter="url(#filter0_b_2631_117)">
<circle cx="297" cy="73" r="73" fill="white" fill-opacity="0.12"/>
<circle cx="297" cy="73" r="72.27" stroke="#EDF03E" stroke-opacity="0.44" stroke-width="1.46"/>
</g>
<path d="M290.187 52.5598H307.22C312.865 52.5598 317.44 57.1355 317.44 62.7798C317.44 68.4244 312.865 72.9998 307.22 72.9998M290.187 52.5598V72.9998M290.187 52.5598H279.967M290.187 52.5598V42.3398M307.22 72.9998H290.187M307.22 72.9998C312.865 72.9998 317.44 77.5753 317.44 83.2198C317.44 88.8644 312.865 93.4398 307.22 93.4398H290.187M290.187 72.9998V93.4398M290.187 93.4398H279.967M290.187 93.4398V103.66M300.407 52.5598V42.3398M300.407 103.66V93.4398" stroke="#EAE1FA" stroke-width="6.81333" stroke-linecap="round" stroke-linejoin="round"/>
<ellipse cx="101.1" cy="198.74" rx="53" ry="53" fill="#1C0C2B"/>
<ellipse cx="137.14" cy="233.72" rx="53" ry="53" fill="#1C0C2B"/>
<g filter="url(#filter1_b_2631_117)">
<ellipse cx="108.52" cy="159.52" rx="44.52" ry="44.52" fill="white" fill-opacity="0.12"/>
<path d="M152.595 159.52C152.595 183.862 132.862 203.595 108.52 203.595C84.178 203.595 64.4451 183.862 64.4451 159.52C64.4451 135.178 84.178 115.445 108.52 115.445C132.862 115.445 152.595 135.178 152.595 159.52Z" stroke="#EDF03E" stroke-opacity="0.3" stroke-width="0.8904"/>
</g>
<g clip-path="url(#clip0_2631_117)">
<path d="M102.012 164.948C102.119 164.795 102.284 164.687 102.474 164.654L119.68 161.62C119.995 161.564 120.219 161.916 120.036 162.178L117.236 166.176C117.129 166.329 116.963 166.436 116.774 166.47L99.5674 169.504C99.2529 169.559 99.0288 169.207 99.2119 168.946L102.012 164.948Z" fill="#EAE1FA"/>
<path d="M99.7738 152.257C99.8864 152.103 100.052 151.996 100.236 151.963L117.443 148.929C117.757 148.874 117.981 149.225 117.798 149.487L114.998 153.485C114.891 153.638 114.726 153.746 114.536 153.779L97.3297 156.813C97.0152 156.869 96.7911 156.517 96.9742 156.255L99.7738 152.257Z" fill="#EAE1FA"/>
<path d="M115.441 155.995C115.288 155.888 115.096 155.844 114.906 155.877L97.6995 158.911C97.3851 158.967 97.2948 159.374 97.5563 159.557L101.555 162.356C101.708 162.464 101.9 162.508 102.09 162.474L119.296 159.441C119.61 159.385 119.701 158.978 119.439 158.795L115.441 155.995Z" fill="#EAE1FA"/>
</g>
<ellipse cx="48.0998" cy="241.14" rx="53" ry="53" fill="#1C0C2B"/>
<ellipse cx="21.5998" cy="286.72" rx="53" ry="53" fill="#1C0C2B"/>
<ellipse cx="74.5998" cy="319.581" rx="53" ry="53" fill="#1C0C2B"/>
<ellipse cx="127.6" cy="286.72" rx="53" ry="53" fill="#1C0C2B"/>
<ellipse cx="184.84" cy="294.14" rx="53" ry="53" fill="#1C0C2B"/>
<ellipse cx="16.3001" cy="339.72" rx="53" ry="53" fill="#1C0C2B"/>
<ellipse cx="84.14" cy="400.139" rx="53" ry="53" fill="#1C0C2B"/>
<ellipse cx="158.34" cy="372.581" rx="53" ry="53" fill="#1C0C2B"/>
<ellipse cx="190.14" cy="380" rx="53" ry="53" fill="#1C0C2B"/>
<ellipse cx="233.6" cy="372.581" rx="53" ry="53" fill="#1C0C2B"/>
<ellipse cx="217.17" cy="392.19" rx="65.19" ry="65.19" fill="#1C0C2B"/>
<ellipse cx="260.1" cy="347.139" rx="53" ry="53" fill="#1C0C2B"/>
<ellipse cx="291.9" cy="400.139" rx="53" ry="53" fill="#1C0C2B"/>
<ellipse cx="326.88" cy="382.12" rx="53" ry="53" fill="#1C0C2B"/>
<ellipse cx="384.12" cy="347.139" rx="53" ry="53" fill="#1C0C2B"/>
<ellipse cx="383.88" cy="405.88" rx="50.88" ry="50.88" fill="#1C0C2B"/>
<ellipse cx="418.04" cy="389.54" rx="53" ry="53" fill="#1C0C2B"/>
<ellipse cx="70.36" cy="404.91" rx="96.46" ry="93.81" fill="#1C0C2B"/>
<ellipse cx="202.86" cy="233.72" rx="53" ry="53" fill="#1C0C2B"/>
<g filter="url(#filter2_b_2631_117)">
<ellipse cx="238.497" cy="255.578" rx="71.6772" ry="71.6772" fill="white" fill-opacity="0.12"/>
<path d="M309.458 255.578C309.458 294.768 277.687 326.538 238.497 326.538C199.307 326.538 167.537 294.768 167.537 255.578C167.537 216.387 199.307 184.617 238.497 184.617C277.687 184.617 309.458 216.387 309.458 255.578Z" stroke="#EDF03E" stroke-opacity="0.3" stroke-width="1.43354"/>
</g>
<circle cx="39.4928" cy="348.073" r="80.4328" stroke="#F4F5A8" stroke-width="2.12"/>
<path d="M333.768 385.687C333.768 406.255 317.095 422.928 296.527 422.928C275.959 422.928 259.285 406.255 259.285 385.687C259.285 365.119 275.959 348.445 296.527 348.445C317.095 348.445 333.768 365.119 333.768 385.687Z" stroke="white" stroke-width="2.12"/>
<path d="M282.332 400.655C282.332 413.82 271.66 424.491 258.496 424.491C245.332 424.491 234.66 413.82 234.66 400.655C234.66 387.491 245.332 376.819 258.496 376.819C271.66 376.819 282.332 387.491 282.332 400.655Z" stroke="white" stroke-width="2.12"/>
<ellipse cx="365.57" cy="230.009" rx="36.57" ry="36.57" fill="#1C0C2B"/>
<path d="M402.766 192.692C402.766 205.159 392.66 215.265 380.193 215.265C367.726 215.265 357.62 205.159 357.62 192.692C357.62 180.226 367.726 170.119 380.193 170.119C392.66 170.119 402.766 180.226 402.766 192.692Z" stroke="#F4F5A8" stroke-width="2.12"/>
<g clip-path="url(#clip1_2631_117)">
<path d="M238.89 267.939L224.156 259.243L238.881 280.002L253.623 259.243L238.881 267.939H238.89ZM239.109 232L224.381 256.446L239.109 265.156L253.844 256.455L239.109 232Z" fill="#EAE1FA"/>
</g>
<defs>
<filter id="filter0_b_2631_117" x="212.32" y="-11.68" width="169.36" height="169.36" filterUnits="userSpaceOnUse" color-interpolation-filters="sRGB">
<feFlood flood-opacity="0" result="BackgroundImageFix"/>
<feGaussianBlur in="BackgroundImageFix" stdDeviation="5.84"/>
<feComposite in2="SourceAlpha" operator="in" result="effect1_backgroundBlur_2631_117"/>
<feBlend mode="normal" in="SourceGraphic" in2="effect1_backgroundBlur_2631_117" result="shape"/>
</filter>
<filter id="filter1_b_2631_117" x="56.8767" y="107.877" width="103.286" height="103.286" filterUnits="userSpaceOnUse" color-interpolation-filters="sRGB">
<feFlood flood-opacity="0" result="BackgroundImageFix"/>
<feGaussianBlur in="BackgroundImageFix" stdDeviation="3.5616"/>
<feComposite in2="SourceAlpha" operator="in" result="effect1_backgroundBlur_2631_117"/>
<feBlend mode="normal" in="SourceGraphic" in2="effect1_backgroundBlur_2631_117" result="shape"/>
</filter>
<filter id="filter2_b_2631_117" x="155.352" y="172.432" width="166.291" height="166.291" filterUnits="userSpaceOnUse" color-interpolation-filters="sRGB">
<feFlood flood-opacity="0" result="BackgroundImageFix"/>
<feGaussianBlur in="BackgroundImageFix" stdDeviation="5.73418"/>
<feComposite in2="SourceAlpha" operator="in" result="effect1_backgroundBlur_2631_117"/>
<feBlend mode="normal" in="SourceGraphic" in2="effect1_backgroundBlur_2631_117" result="shape"/>
</filter>
<clipPath id="clip0_2631_117">
<rect width="22.26" height="17.158" fill="white" transform="translate(96.0543 152.701) rotate(-10)"/>
</clipPath>
<clipPath id="clip1_2631_117">
<rect width="48" height="48" fill="white" transform="translate(215 232)"/>
</clipPath>
</defs>
</svg>
